<svg width="38" height="40" viewBox="0 0 38 40" fill="none" xmlns="http://www.w3.org/2000/svg">
<path d="M36.5569 28.4962H34.9897C34.4102 28.4962 33.9384 28.9627 33.9285 29.5397H29.879C29.7425 29.1691 29.406 28.8948 29.0003 28.8499V26.2097C29.0003 25.8861 28.7381 25.6238 28.4144 25.6238C28.0907 25.6238 27.8285 25.8861 27.8285 26.2097V28.8431H24.2392V17.1932H27.8285V23.4754C27.8285 23.799 28.0907 24.0614 28.4144 24.0614C28.7381 24.0614 29.0003 23.799 29.0003 23.4754V17.1864C29.531 17.1278 29.9453 16.677 29.9453 16.1311V11.1265C29.9453 10.5804 29.531 10.1297 29.0003 10.0711V3.68476C29.531 3.62609 29.9453 3.17538 29.9453 2.62937V1.06219C29.9453 0.476483 29.4687 0 28.883 0H23.1846C22.5989 0 22.1223 0.476483 22.1223 1.06219V2.62937C22.1223 3.17538 22.5366 3.62616 23.0673 3.68476V10.071C22.5366 10.1296 22.1223 10.5804 22.1223 11.1264V16.131C22.1223 16.677 22.5366 17.1277 23.0673 17.1864V28.8499C22.6616 28.8948 22.325 29.1691 22.1886 29.5398H18.3291C17.9393 29.5398 17.6222 29.2226 17.6222 28.8328V27.9435C18.1622 27.8939 18.5867 27.4389 18.5867 26.8862V21.8815C18.5867 21.3288 18.1622 20.8739 17.6222 20.8243V15.9524C17.6222 12.2978 14.6489 9.32451 10.9943 9.32451H7.60631C7.21655 9.32451 6.89936 9.0074 6.89936 8.61756V3.68156C7.41967 3.61327 7.82295 3.16804 7.82295 2.62945V1.06226C7.82295 0.476562 7.34639 7.81249e-05 6.76069 7.81249e-05H1.06226C0.476562 7.81249e-05 0 0.476562 0 1.06226V2.62945C0 3.18687 0.431874 3.64445 0.978436 3.68741V4.85937C0.978436 5.18296 1.2407 5.4453 1.56437 5.4453C1.88804 5.4453 2.15031 5.18296 2.15031 4.85937V3.69163H5.72741V8.61764C5.72741 9.65365 6.57022 10.4965 7.60624 10.4965H10.9942C14.0026 10.4965 16.4502 12.944 16.4502 15.9525V20.8193H12.8731V15.9525C12.8731 14.9165 12.0302 14.0736 10.9942 14.0736H7.60624C4.5978 14.0736 2.15031 11.6261 2.15031 8.61772V7.35936C2.15031 7.03577 1.88804 6.77342 1.56437 6.77342C1.2407 6.77342 0.978436 7.03577 0.978436 7.35936V8.61764C0.978436 12.2722 3.95171 15.2454 7.60624 15.2454H10.9942C11.384 15.2454 11.7012 15.5626 11.7012 15.9524V20.8272C11.1741 20.8892 10.7637 21.338 10.7637 21.8814V22.6889H8.40983C8.34186 22.5539 8.24623 22.4354 8.12952 22.3415L8.89225 20.5343C9.15975 19.9005 9.0924 19.1797 8.71209 18.6064C8.33178 18.0331 7.69397 17.6908 7.00592 17.6908H5.55624C4.86819 17.6908 4.23038 18.0331 3.85007 18.6064C3.46976 19.1797 3.40249 19.9005 3.66991 20.5343L4.43273 22.3415C4.19359 22.534 4.03991 22.8286 4.03991 23.1588V25.6086C4.03991 25.9388 4.19359 26.2335 4.43273 26.4259L3.66991 28.2331C3.40242 28.8669 3.46976 29.5877 3.85007 30.161C4.23038 30.7343 4.86819 31.0766 5.55624 31.0766H7.00608C7.69413 31.0766 8.33194 30.7343 8.71225 30.161C9.09256 29.5877 9.15983 28.8669 8.8924 28.2331L8.12967 26.4259C8.24639 26.332 8.34202 26.2135 8.40998 26.0785H10.7639V26.886C10.7639 27.4295 11.1743 27.8782 11.7014 27.9402V28.8325C11.7014 32.4871 14.6747 35.4603 18.3292 35.4603H22.2778C22.4452 35.7348 22.7326 35.9281 23.0672 35.9651V39.4141C23.0672 39.7377 23.3295 40 23.6532 40H28.4143C28.738 40 29.0003 39.7377 29.0003 39.4141V35.9653C29.3349 35.9284 29.6222 35.7351 29.7896 35.4606H33.9475C34.0428 35.9492 34.4737 36.3191 34.9897 36.3191H36.5569C37.1426 36.3191 37.6191 35.8427 37.6191 35.257V29.5585C37.6191 28.9728 37.1426 28.4962 36.5569 28.4962ZM6.65116 2.51976H1.17195V1.17195H6.65116V2.51976ZM7.73561 29.5135C7.57053 29.7623 7.3046 29.905 7.006 29.905H5.55624C5.25765 29.905 4.99171 29.7623 4.82663 29.5135C4.66163 29.2646 4.63351 28.9642 4.74968 28.689L5.60686 26.6581H6.95553L7.81272 28.689C7.92873 28.9642 7.90069 29.2646 7.73561 29.5135ZM5.21186 25.4863V23.2815H5.21819H7.3442H7.35053V25.4863H7.3442H5.21819H5.21186ZM7.81264 20.0787L6.95546 22.1096H5.60679L4.7496 20.0787C4.63351 19.8036 4.66155 19.5031 4.82655 19.2543C4.99163 19.0054 5.25757 18.8627 5.55616 18.8627H7.006C7.3046 18.8627 7.57053 19.0054 7.73561 19.2543C7.90069 19.5032 7.92873 19.8036 7.81264 20.0787ZM10.7638 24.9069H8.52241V23.8609H10.7638V24.9069ZM11.9357 21.9912H17.4148V26.7765H11.9357V21.9912ZM22.1222 34.2888H18.3291C15.3207 34.2888 12.8732 31.8412 12.8732 28.8328V27.9485H16.4503V28.8328C16.4503 29.8688 17.2931 30.7117 18.3291 30.7117H22.1222V34.2888ZM23.2941 1.17195H28.7733V2.51976H23.2941V1.17195ZM27.8284 3.69163V10.0642H24.2391V3.69163H27.8284ZM23.2941 11.2361H28.7733V16.0214H23.2941V11.2361ZM27.8284 38.8281H24.2391V35.9722H27.8284V38.8281ZM28.7733 34.8003H23.2941V30.015H28.7733V34.8003ZM33.9274 34.2888H29.9451V30.7117H33.9274V34.2888ZM36.4472 35.1473H35.0993V29.6681H36.4472V35.1473Z" fill="white"/>
</svg>
