<svg width="32" height="32" viewBox="0 0 32 32" fill="none" xmlns="http://www.w3.org/2000/svg">
<g clip-path="url(#clip0_1807_10159)">
<path d="M31.9061 9.87141L28.4284 4.21007C28.3302 4.0511 28.1679 3.94292 27.9832 3.91339C27.7989 3.88386 27.6107 3.93629 27.468 4.0569L18.2674 11.845L14.9398 8.59469C15.1829 7.77142 15.1882 6.89599 14.9547 6.06996C16.6073 4.67622 18.7178 3.45856 20.0224 3.94623C20.3047 4.05359 20.6237 3.94844 20.7866 3.69425C20.9497 3.43979 20.9122 3.10612 20.6963 2.89444C20.6467 2.84504 15.6927 -1.88263 10.7345 2.69656C9.37144 2.58809 8.02794 3.073 7.04818 4.02682C6.08056 4.96242 5.57937 6.27971 5.67983 7.62184C4.67385 8.54777 3.9331 8.82293 3.61406 8.90463C2.70882 8.2602 1.47322 8.35155 0.672582 9.12183C0.242593 9.53829 0 10.111 0 10.7093C0 11.3077 0.242593 11.8806 0.672306 12.2971L5.30918 16.826C6.20586 17.6921 7.6272 17.6921 8.52389 16.826C9.32177 16.0577 9.42167 14.8149 8.7571 13.9287C8.84624 13.605 9.13299 12.8935 10.0653 11.9289C10.6208 11.9675 11.1789 11.9101 11.7149 11.76L14.804 14.7768L10.4933 18.4257C9.84173 18.0166 7.99896 17.4095 4.82841 20.5061C4.46217 20.8637 3.97505 21.4179 3.97505 22.0955C3.97505 22.8478 4.52234 23.3818 5.21507 24.058C6.06594 24.8896 7.08378 24.7273 7.79528 24.3139L11.1251 27.5664C10.9076 27.9105 10.7881 28.3071 10.7793 28.7139C10.7787 29.2237 10.9929 29.7017 11.3975 30.0975C12.0292 30.714 12.6389 31.3099 13.3898 31.3099C13.8582 31.3096 14.3815 31.0778 14.9988 30.4745C16.6354 28.8762 17.4651 27.4229 17.4651 26.1552C17.4722 25.7391 17.3668 25.3284 17.1598 24.9674L17.897 24.2471C18.0198 24.1276 18.0888 23.9634 18.0888 23.792V22.165H19.7676C20.1203 22.1656 20.4071 21.8802 20.4076 21.5275V20.2499L25.0166 24.7521C25.9133 25.6179 27.3344 25.6179 28.2311 24.7524C28.6611 24.3359 28.9037 23.7633 28.9037 23.1649C28.9037 22.5666 28.6611 21.9936 28.2314 21.5772L24.1961 17.6355H24.4045C24.7572 17.6363 25.044 17.3507 25.0445 16.998V15.371H26.7231C27.0758 15.3716 27.3623 15.0862 27.3631 14.7335V13.1065H29.0417C29.3946 13.1071 29.6811 12.8217 29.6817 12.4687V10.8418H31.3602C31.5912 10.8426 31.8048 10.7184 31.918 10.5169C32.0314 10.3155 32.0267 10.0685 31.9061 9.87141ZM7.62748 15.9158C7.23088 16.2989 6.60218 16.2989 6.20531 15.9158L1.56844 11.3866C1.38408 11.2097 1.28003 10.9652 1.28003 10.7096C1.28003 10.454 1.38408 10.2095 1.56844 10.0326C1.96503 9.64924 2.59401 9.64924 2.9906 10.0326L7.62748 14.5615C7.81184 14.7387 7.91588 14.9833 7.91588 15.2388C7.91588 15.4944 7.81184 15.7386 7.62748 15.9158ZM9.89693 10.6296C9.66344 10.5984 9.43189 10.6985 9.29527 10.8904C8.49325 11.6877 8.03704 12.3829 7.77734 12.9222L4.65785 9.87528C5.19796 9.62385 5.89041 9.18779 6.68443 8.43103C6.69905 8.42192 6.71313 8.41254 6.7272 8.4026C6.92012 8.26378 7.01948 8.02864 6.98498 7.7935C6.8227 6.74199 7.18038 5.67722 7.94431 4.93703C8.72756 4.17778 9.8213 3.82949 10.899 3.99618C11.1369 4.0282 11.3726 3.92249 11.5068 3.72351C14.1057 1.25231 16.6779 1.88405 18.2538 2.71836C16.4439 3.19085 14.6489 4.62599 13.7856 5.39241C13.5855 5.56987 13.5179 5.85358 13.6164 6.10225C13.9236 6.8797 13.9236 7.74493 13.6156 8.52183C13.2364 9.429 12.5445 10.0701 11.6403 10.4433C11.0837 10.6491 10.4845 10.7132 9.89693 10.6296ZM12.9742 11.2042C13.5342 10.8514 14.0116 10.3817 14.3734 9.82753L17.2879 12.6743L15.7835 13.9478L12.9742 11.2042ZM14.1027 29.5642C13.392 30.2584 13.3506 30.2192 12.2939 29.187C12.085 28.9827 12.0598 28.8216 12.059 28.7183C12.0565 28.3976 12.3231 28.059 12.4228 27.9583C12.5456 27.8388 12.6149 27.6746 12.6149 27.5032C12.6149 27.3318 12.5456 27.1678 12.4228 27.0481L8.30089 23.022C8.05167 22.7788 7.65397 22.7788 7.40475 23.022C7.33162 23.0926 6.6767 23.7001 6.11092 23.1475C5.671 22.7178 5.25509 22.3118 5.25509 22.0955C5.25509 22.0292 5.30062 21.8302 5.72482 21.4163C8.62131 18.5868 9.84946 19.5302 9.85194 19.5291L10.0449 19.7176H10.0451L15.8417 25.3794C15.8423 25.38 15.8428 25.38 15.8434 25.3805L16.0183 25.5511C16.0283 25.5627 16.9912 26.7425 14.1027 29.5642ZM27.6236 23.1649C27.6233 23.4205 27.5193 23.6647 27.3352 23.8416C26.9383 24.2247 26.3096 24.2247 25.9131 23.8416L21.8776 19.9003H22.0862C22.4389 19.9008 22.7254 19.6154 22.7262 19.2625V17.9855L27.3352 22.4876C27.5193 22.6648 27.6233 22.9094 27.6236 23.1649ZM29.0417 9.56672C28.6889 9.56617 28.4025 9.85154 28.4019 10.2043V11.8312H26.7231C26.3701 11.8306 26.0836 12.116 26.0831 12.4687V14.096H24.4045C24.0518 14.0951 23.7653 14.3805 23.7645 14.7335V16.3604H22.0862C21.7332 16.3596 21.4467 16.6453 21.4462 16.998V18.6249H19.7676C19.4149 18.6244 19.1284 18.9097 19.1276 19.2625V20.89H17.4488C17.0961 20.8891 16.8096 21.1745 16.8088 21.5275V23.5243L16.2899 24.0312L11.4419 19.2961L16.1663 15.2971L16.1671 15.2965L18.651 13.194L18.6515 13.1932L27.7268 5.51108L30.2185 9.56672H29.0417Z" fill="#F47629"/>
<path d="M10.362 21.6382C10.1106 21.3909 9.70626 21.3939 9.4587 21.6453C9.21114 21.8968 9.21445 22.3011 9.46587 22.5486L12.9436 25.9455C13.1062 26.1058 13.3418 26.1674 13.5621 26.1067C13.7823 26.046 13.9534 25.8721 14.0106 25.651C14.068 25.4299 14.0028 25.1951 13.8397 25.035L10.362 21.6382Z" fill="#F47629"/>
</g>
<defs>
<clipPath id="clip0_1807_10159">
<rect width="32" height="32" fill="white"/>
</clipPath>
</defs>
</svg>
