<svg width="24" height="24" viewBox="0 0 24 24" fill="none" xmlns="http://www.w3.org/2000/svg">
<path d="M5.1233 12.3805C5.73318 12.4413 7.07498 12.4413 7.07498 13.2953C7.07498 14.4538 5.36741 15.9785 2.62297 17.6253C1.76938 18.1743 0.000208855 19.0279 0.000208855 20.1868C0.000208855 21.1016 0.671301 21.7723 2.07393 21.5894C3.41573 21.4066 5.48946 20.4917 8.2335 18.1743C11.1 15.7956 13.7832 11.8314 13.7832 7.92847C13.7832 3.96428 11.1 9.53674e-05 6.76965 9.53674e-05C3.29368 9.53674e-05 0.305145 2.62248 0.305145 6.2209C0.305531 8.96534 2.19598 12.1364 5.1233 12.3805Z" fill="white"/>
<path d="M13.6964 14.0953C14.2063 14.3648 14.7651 14.5289 15.3397 14.5778C15.9496 14.6386 17.2914 14.6386 17.2914 15.4926C17.2914 16.6511 15.5838 18.1758 12.8394 19.8225C11.9854 20.3716 10.217 21.2252 10.217 22.3841C10.217 23.2989 10.8881 23.9696 12.2907 23.7867C13.6325 23.6038 15.7063 22.689 18.4503 20.3716C21.3164 17.9929 24 14.0287 24 10.1254C24 6.16117 21.3168 2.19698 16.9865 2.19698C15.9965 2.19581 15.0183 2.41257 14.1215 2.83188C14.9759 4.37659 15.4313 6.16386 15.4313 7.92803C15.431 10.1065 14.7295 12.2191 13.6964 14.0953Z" fill="white"/>
</svg>
