<svg width="40" height="40" viewBox="0 0 40 40" fill="none" xmlns="http://www.w3.org/2000/svg">
<path d="M14.5161 16.106C14.6291 16.2153 14.7748 16.2696 14.9203 16.2696C15.0723 16.2696 15.2242 16.2104 15.3381 16.0925C15.5614 15.8618 15.5554 15.4938 15.3247 15.2706C14.6242 14.5928 13.4845 14.5928 12.784 15.2706C12.5533 15.4938 12.5472 15.8618 12.7706 16.0925C12.9937 16.3233 13.3617 16.3293 13.5926 16.106C13.8471 15.8596 14.2614 15.8596 14.5161 16.106Z" fill="white"/>
<path d="M21.0695 16.1051C21.3223 15.8591 21.7353 15.8595 21.9899 16.106C22.1029 16.2152 22.2486 16.2696 22.3941 16.2696C22.5461 16.2696 22.698 16.2104 22.8119 16.0925C23.0352 15.8618 23.0292 15.4937 22.7985 15.2705C22.0969 14.5916 20.9576 14.5923 20.2591 15.2715C20.0289 15.4953 20.0237 15.8634 20.2476 16.0935C20.4712 16.3237 20.8392 16.3289 21.0695 16.1051Z" fill="white"/>
<path d="M17.7919 20.5489H17.7938C18.4224 20.5484 19.013 20.303 19.4565 19.8579C19.6832 19.6306 19.6826 19.2625 19.4552 19.0358C19.2279 18.8092 18.8598 18.8097 18.6331 19.0372C18.409 19.262 18.1106 19.386 17.7929 19.3862C17.7926 19.3862 17.7923 19.3862 17.7919 19.3862C17.4735 19.3862 17.174 19.2621 16.9485 19.0365C16.7215 18.8095 16.3534 18.8094 16.1264 19.0365C15.8993 19.2635 15.8993 19.6315 16.1263 19.8586C16.5715 20.3038 17.1629 20.5489 17.7919 20.5489Z" fill="white"/>
<path d="M36.9047 13.2374H32.3285C31.7513 13.2374 31.2819 13.7069 31.2819 14.2839V18.9755C31.2819 19.9373 31.6088 20.4384 31.8971 20.8805C32.1838 21.3201 32.4315 21.6998 32.4315 22.6769V27.5473C31.902 27.5515 31.4724 27.9841 31.4724 28.5159V28.7022C29.497 26.7991 26.4103 25.532 23.6629 24.7205C23.6571 24.7186 23.6517 24.7162 23.6458 24.7144C23.6363 24.7115 23.6268 24.7097 23.6173 24.7073C23.1688 24.5755 22.7293 24.4554 22.3058 24.347C22.2753 24.3391 22.2524 24.3318 22.2354 24.3256L22.2393 22.2663C23.6967 21.0945 24.8475 19.4936 25.3652 17.8859C27.2249 17.6708 28.0975 16.1844 28.117 14.8006C28.1317 13.7586 27.7097 12.8691 27.0394 12.3648C27.1737 12.142 27.2524 11.8821 27.2524 11.6035V10.5669C27.2524 9.81172 26.6839 9.18805 25.9526 9.09844C25.7078 5.58992 23.2209 2.60586 19.8017 1.73664C19.6591 0.755937 18.812 0 17.7912 0C16.7703 0 15.9232 0.755937 15.7805 1.73672C12.3613 2.60594 9.87439 5.59 9.62955 9.09852C8.8983 9.18812 8.32971 9.81188 8.32971 10.567V11.6036C8.32971 11.8823 8.40853 12.1423 8.54299 12.3652C7.87307 12.8697 7.45135 13.7592 7.46611 14.8013C7.48564 16.1853 8.35877 17.672 10.2193 17.8862C10.7372 19.4948 11.8888 21.0966 13.3468 22.2686V24.326C13.3303 24.332 13.308 24.339 13.2788 24.3466C12.8328 24.4609 12.3984 24.5805 11.9749 24.7048C11.962 24.7078 11.9491 24.7106 11.9362 24.7145C11.9278 24.7171 11.9199 24.7205 11.9118 24.7233C10.4795 25.1465 9.17994 25.6258 8.03619 26.154C7.74478 26.2886 7.61752 26.634 7.75213 26.9255C7.85033 27.138 8.06057 27.2633 8.28033 27.2633C8.36182 27.2633 8.44471 27.246 8.52369 27.2096C9.47674 26.7695 10.5466 26.3641 11.7186 25.9974L12.6722 29.1347C12.6805 29.1619 12.6906 29.1884 12.7028 29.2141C12.9056 29.643 13.2199 29.9391 13.612 30.0702C13.7592 30.1195 13.913 30.1439 14.0708 30.1439C14.3535 30.1439 14.6493 30.0653 14.9453 29.9098L17.21 28.7188V38.0045H14.9128V33.4955C14.9128 32.9955 14.5059 32.5886 14.0058 32.5886H10.7785C10.2796 32.5886 9.87377 32.9955 9.87377 33.4955V38.0045H7.57635V34.7825C7.57635 34.4615 7.31611 34.2012 6.99502 34.2012C6.67393 34.2012 6.41369 34.4614 6.41369 34.7825V38.0045H3.45103C3.3365 38.0045 3.26135 37.9988 3.21346 37.9926C3.21103 37.9498 3.21049 37.8858 3.21619 37.7924C3.21689 37.7808 3.21728 37.7691 3.21728 37.7573V33.1123C3.21728 31.4063 4.2208 29.8559 6.19994 28.5042C6.4651 28.3231 6.53322 27.9614 6.35213 27.6963C6.17103 27.4312 5.80916 27.363 5.54424 27.5441C3.22861 29.1256 2.05455 30.9991 2.05455 33.1123V37.7402C2.03416 38.101 2.05502 38.5076 2.34111 38.8115C2.63603 39.1248 3.06768 39.167 3.45103 39.167H32.4885C33.0488 39.6837 33.7964 39.9999 34.6166 39.9999C36.3503 39.9999 37.7607 38.5884 37.7607 36.8535V28.5159C37.7607 27.9849 37.3324 27.5528 36.8038 27.5474V22.6769C36.8038 21.6995 37.051 21.3198 37.3373 20.88C37.6251 20.438 37.9512 19.9369 37.9512 18.9754V14.2838C37.9512 13.7069 37.4817 13.2374 36.9047 13.2374ZM36.7885 14.4001V15.7471H32.4446V14.4001H36.7885ZM36.5981 33.3927H32.6351V31.6336H36.5981V33.3927ZM32.6351 30.4709V28.7096H36.5981V30.4709H32.6351ZM36.3629 20.2458C36.0413 20.7397 35.6412 21.3545 35.6412 22.677V27.547H33.5942V22.677C33.5942 21.3542 33.1932 20.7394 32.871 20.2454C32.6235 19.8659 32.4445 19.5916 32.4445 18.9755V16.9098H36.7885V18.9755C36.7885 19.5919 36.61 19.8662 36.3629 20.2458ZM21.7766 25.3925C21.8492 25.4228 21.9278 25.4502 22.0152 25.473C22.2549 25.5343 22.5002 25.5997 22.749 25.6685L21.814 28.7509C21.7606 28.8526 21.6815 28.9589 21.5605 28.9773C21.4305 28.9972 21.2928 28.9399 21.1804 28.8807L18.86 27.6612L21.7766 25.3925ZM25.6347 16.6483C25.6541 16.467 25.6643 16.287 25.6643 16.1091V13.0843H25.7567C26.5499 13.1154 26.966 13.9823 26.9545 14.7843C26.9442 15.5214 26.5795 16.3615 25.6347 16.6483ZM17.7912 1.16266C18.2706 1.16266 18.6606 1.55172 18.6606 2.03V2.20805V2.21273V5.76688C18.6606 6.24633 18.2706 6.63641 17.7912 6.63641C17.3117 6.63641 16.9217 6.24633 16.9217 5.76688V2.21273C16.9217 2.21117 16.9217 2.20961 16.9217 2.20805V2.03C16.9216 1.55172 17.3117 1.16266 17.7912 1.16266ZM15.759 2.94914V5.76688C15.759 6.88742 16.6706 7.79906 17.7912 7.79906C18.9117 7.79906 19.8233 6.88742 19.8233 5.76688V2.94914C22.5681 3.78172 24.5488 6.22258 24.787 9.08633H10.7953C11.0335 6.22266 13.0142 3.7818 15.759 2.94914ZM8.62853 14.785C8.61721 13.9827 9.03283 13.1154 9.82549 13.0843H9.92017V16.1091C9.92017 16.2873 9.93049 16.4673 9.94986 16.6488C9.004 16.3627 8.639 15.5223 8.62853 14.785ZM11.2349 17.2288C11.2305 17.2038 11.2245 17.1794 11.2169 17.1555C11.1303 16.8002 11.0828 16.449 11.0828 16.1091V13.0843H16.7035C17.0245 13.0843 17.2848 12.8241 17.2848 12.503C17.2848 12.1819 17.0245 11.9216 16.7035 11.9216H9.81025C9.63791 11.9216 9.49228 11.776 9.49228 11.6036V10.567C9.49228 10.3916 9.63494 10.2489 9.81025 10.2489H25.7719C25.9472 10.2489 26.0899 10.3916 26.0899 10.567V11.6036C26.0899 11.776 25.9442 11.9216 25.7719 11.9216H19.4104C19.0893 11.9216 18.8291 12.1819 18.8291 12.503C18.8291 12.8241 19.0893 13.0843 19.4104 13.0843H24.5017V16.1091C24.5017 16.4428 24.4559 16.7876 24.3723 17.1363C24.3592 17.1729 24.3498 17.211 24.3442 17.2505C23.7727 19.4208 21.7136 21.7254 19.4135 22.5773C18.8069 22.8033 18.2914 22.9085 17.7912 22.9085C17.2909 22.9085 16.7754 22.8033 16.1681 22.577C13.8621 21.7223 11.7983 19.4052 11.2349 17.2288ZM15.7631 23.667C16.5035 23.9428 17.1479 24.0713 17.7912 24.0713C18.4343 24.0713 19.0788 23.9428 19.8183 23.6673C20.2483 23.508 20.6688 23.3054 21.0753 23.0689L21.0728 24.3383C21.0728 24.3786 21.075 24.4202 21.0787 24.4625L17.7912 27.0198L14.5036 24.4625C14.5073 24.4203 14.5095 24.3786 14.5095 24.3384V23.0701C14.9149 23.3058 15.3342 23.508 15.7631 23.667ZM14.4042 28.8807C14.2916 28.9399 14.1535 28.9974 14.0234 28.9775C13.9025 28.959 13.8237 28.8524 13.7705 28.7509L12.8337 25.6687C13.075 25.6018 13.32 25.5363 13.5688 25.4726C13.6558 25.4501 13.734 25.4229 13.8063 25.3929L16.7226 27.6614L14.4042 28.8807ZM18.3725 28.7184L20.6388 29.9096C20.9342 30.0653 21.2299 30.1441 21.5127 30.1441C21.6703 30.1441 21.824 30.1196 21.9713 30.0705C22.3642 29.9394 22.6792 29.6433 22.8819 29.2141C22.8941 29.1884 22.9044 29.1617 22.9126 29.1345L23.8645 25.9966C26.7812 26.9067 29.9491 28.3325 31.4725 30.4642V36.8537C31.4725 37.2598 31.5506 37.6478 31.6913 38.0045H29.1709V34.7825C29.1709 34.4615 28.9106 34.2012 28.5895 34.2012C28.2685 34.2012 28.0082 34.4614 28.0082 34.7825V38.0045H25.711V33.4955C25.711 32.9955 25.3041 32.5886 24.804 32.5886H21.5767C21.0767 32.5886 20.6698 32.9955 20.6698 33.4955V38.0045H18.3725V28.7184ZM21.8324 38.0045V33.7512H24.5483V38.0045H21.8324ZM11.0363 33.7512H13.7499V38.0045H11.0363V33.7512ZM34.6166 38.8373C34.0459 38.8373 33.531 38.5942 33.1692 38.2064C33.1594 38.1951 33.1495 38.1839 33.1388 38.1734C32.8259 37.8224 32.6351 37.36 32.6351 36.8537V34.5553H36.5981V36.8537C36.5981 37.9474 35.7092 38.8373 34.6166 38.8373Z" fill="white"/>
</svg>
